<?xml version="1.0" encoding="UTF-8"?>
<svg id="Capa_1" xmlns="http://www.w3.org/2000/svg" version="1.1" viewBox="0 0 152 152">
  <!-- Generator: Adobe Illustrator 29.8.2, SVG Export Plug-In . SVG Version: 2.1.1 Build 3)  -->
  <defs>
    <style>
      .st0 {
        fill: #fff;
      }
    </style>
  </defs>
  <path class="st0" d="M112.04,151.76c-5.14-.44-9.81-2.85-14.36-5.04l-78.46-.02c-3.13-.18-6.4-3.52-6.4-6.63V28.63h-4.59c-1.8,0-4.52-3.48-4.82-5.25-.49-2.93-.24-10.62.61-13.46C5.56,4.75,10.38.9,15.72.3c34.16.09,68.45-.6,102.55.35,5.74,1.58,9.81,6.48,10.37,12.43l.03,64.49c2.59,1.32,5.36,3,5.89,6.11,6.78-2.21,13.34.96,13.93,8.43.61,7.8.5,21.65-.99,29.22-2.85,14.47-14.24,28.99-29.82,30.43-1.51.14-4.11.13-5.63,0h0ZM103.16,6.14H15.94c-2.37,0-6.66,4.29-6.66,6.66v9.47l.44.44h36.13c2.1,0,3.74,2.27,2.88,4.36-.17.42-1.36,1.56-1.7,1.56h-27.84l-.44.44v110.69c0,.11.67,1.04.74,1.04h71.23c.13-.51-.21-.59-.44-.89-7.26-9.4-16.87-19.71-23.2-29.5-3.89-6.02-3.13-13.8,3.41-17.5,8.79-4.97,13.84,4.52,19.34,9.41v-48.69c0-4.26,5.65-7.93,9.63-7.86s9.33,3.7,9.33,7.86v18.79c5.09-1.88,10.85.3,12.72,5.49h.92l.24-.36.06-64.19c-.77-6.82-9.08-9.73-13.94-4.74-5.23,5.38,2.1,16.92-7.08,19.86l-30.02.07c-2.12-.63-2.68-3.61-.96-4.98.32-.25,1.79-.88,2.08-.88h27.69c.97-5.62-1.08-11.64,2.67-16.57v.02ZM116.87,100.17c-.36-.38-.63-1.29-.69-1.83-.6-5.39.7-12.13-.02-17.44-.24-1.74-1.27-2.95-3.08-3.14-2.61-.27-3.86.98-4.22,3.49-.75,5.23.42,11.75-.06,17.1-.32,3.54-4.77,3.7-5.8.44l-.16-44.24c-.72-3.89-6.62-3.69-7.1.27l.02,51.52c-.2,2.62-1.68,4.88-4.57,4.56-3.68-.42-9.94-9.76-13.2-12.27-3.58-2.76-7.37.55-7.43,4.45-.04,2.58,1.75,4.41,3.16,6.33,5.98,8.18,13.96,19.02,20.7,26.38,20.48,22.35,46.68,4.58,48.14-22.04.31-5.66.6-15.89,0-21.32-.25-2.19-1.57-3.71-3.9-3.53-5.33.4-2.69,7.48-3.64,10.5-.6,1.92-3.57,2.24-4.91.73-1.96-2.19-.24-11.52-1.01-14.68-1.44-3.14-6.4-2.8-6.96.78-.52,3.35.78,10.3-.29,13.03-.78,2-3.53,2.47-4.96.92h-.01Z"/>
  <path class="st0" d="M35.26,39.36c2.4-.38,10.5-.38,12.93-.05,1.98.27,3.95,1.75,4.68,3.61.83,2.13.79,11.08.53,13.67-.37,3.71-2.85,5.47-6.37,5.77-2.85.24-11.13.35-13.49-.72-1.84-.84-3.03-2.75-3.25-4.75-.29-2.74-.31-9.99.08-12.65.37-2.51,2.37-4.49,4.88-4.89h0ZM47.48,45.21h-11.25v10.8l.44.44h10.37l.44-.44s0-10.8,0-10.8Z"/>
  <path class="st0" d="M80.56,74.01c1.96,1.73.68,4.96-1.83,5.24l-46.58-.23c-2.79-1.53-2.27-5.34.95-5.7h45.34c.66,0,1.63.26,2.12.69Z"/>
  <path class="st0" d="M32.58,124.29l33.48.16c2.85,1.56,1.96,5.45-1.26,5.7l-32.65-.22c-2.68-1.57-2.4-4.42.43-5.63h0Z"/>
  <path class="st0" d="M32.89,90.26l25.09-.05c3.38.52,3.61,5.1.3,5.88h-25.73c-3.16-1.08-2.82-5.09.35-5.83h0Z"/>
  <path class="st0" d="M88.55,44.52c-.5.47-1.44.64-2.12.7-7.69.7-16.47-.54-24.28-.03-3.34-.93-2.98-5.49.57-5.91,7.51.64,16.36-.83,23.7,0,2.77.32,4.19,3.32,2.13,5.24Z"/>
  <path class="st0" d="M32.29,107.42l23.32-.05c3.36,1.31,2.69,5.39-.9,5.88-6.43.87-14.65-.57-21.27,0-3.44-.37-4.34-4.35-1.15-5.83Z"/>
  <path class="st0" d="M61.9,56.52l20.36-.05c3.6,1.48,2.65,5.42-1.2,5.87s-14.15.47-18,0c-3.56-.43-4.47-4.34-1.16-5.82Z"/>
  <path class="st0" d="M58.35,23.07c5.45-1.24,5.09,7.06-.23,5.43-2.38-.73-2.27-4.86.23-5.43Z"/>
</svg>